<?xml version="1.0" encoding="UTF-8" standalone="no"?>
<!-- Created with Inkscape (http://www.inkscape.org/) -->

<svg
   xmlns:dc="http://purl.org/dc/elements/1.1/"
   xmlns:cc="http://creativecommons.org/ns#"
   xmlns:rdf="http://www.w3.org/1999/02/22-rdf-syntax-ns#"
   xmlns:svg="http://www.w3.org/2000/svg"
   xmlns="http://www.w3.org/2000/svg"
   xmlns:sodipodi="http://sodipodi.sourceforge.net/DTD/sodipodi-0.dtd"
   xmlns:inkscape="http://www.inkscape.org/namespaces/inkscape"
   width="547.16595"
   height="547.16595"
   id="svg2"
   version="1.1"
   inkscape:version="0.48.1 "
   sodipodi:docname="chaos theosis logo.svg">
  <defs
     id="defs4" />
  <sodipodi:namedview
     id="base"
     pagecolor="#ffffff"
     bordercolor="#666666"
     borderopacity="1.0"
     inkscape:pageopacity="0.0"
     inkscape:pageshadow="2"
     inkscape:zoom="0.7"
     inkscape:cx="178.98347"
     inkscape:cy="237.08974"
     inkscape:document-units="px"
     inkscape:current-layer="layer4"
     showgrid="false"
     inkscape:window-width="1280"
     inkscape:window-height="969"
     inkscape:window-x="-4"
     inkscape:window-y="-4"
     inkscape:window-maximized="1"
     fit-margin-top="0"
     fit-margin-left="0"
     fit-margin-right="0"
     fit-margin-bottom="0" />
  <metadata
     id="metadata7">
    <rdf:RDF>
      <cc:Work
         rdf:about="">
        <dc:format>image/svg+xml</dc:format>
        <dc:type
           rdf:resource="http://purl.org/dc/dcmitype/StillImage" />
        <dc:title></dc:title>
      </cc:Work>
    </rdf:RDF>
  </metadata>
  <g
     inkscape:groupmode="layer"
     id="layer2"
     inkscape:label="Octagon"
     style="display:inline"
     sodipodi:insensitive="true"
     transform="translate(-112.27414,-241.77919)">
    <path
       sodipodi:type="star"
       style="fill:#d3d3d3;fill-opacity:1;fill-rule:evenodd;stroke:none"
       id="path3029"
       sodipodi:sides="8"
       sodipodi:cx="394.28571"
       sodipodi:cy="518.07648"
       sodipodi:r1="284.31802"
       sodipodi:r2="262.6756"
       sodipodi:arg1="0.52359878"
       sodipodi:arg2="0.91629786"
       inkscape:flatsided="true"
       inkscape:rounded="0"
       inkscape:randomized="0"
       d="M 640.51234,660.23549 467.87262,792.7066 252.12669,764.30311 119.65558,591.6634 148.05907,375.91746 320.69879,243.44635 l 215.74593,28.4035 132.47111,172.63971 z"
       transform="matrix(1.0320952,-0.13401084,0.13401084,1.0320952,-90.511122,33.496492)" />
  </g>
  <g
     inkscape:groupmode="layer"
     id="layer3"
     inkscape:label="Centre Ball"
     style="display:inline"
     sodipodi:insensitive="true"
     transform="translate(-112.27414,-241.77919)">
    <path
       sodipodi:type="arc"
       style="fill:#800000;fill-opacity:1;fill-rule:evenodd;stroke:none"
       id="path3033"
       sodipodi:cx="393.03571"
       sodipodi:cy="516.64789"
       sodipodi:rx="46.42857"
       sodipodi:ry="46.42857"
       d="m 439.46428,516.64789 c 0,25.64179 -20.78678,46.42857 -46.42857,46.42857 -25.6418,0 -46.42857,-20.78678 -46.42857,-46.42857 0,-25.64179 20.78677,-46.42857 46.42857,-46.42857 25.64179,0 46.42857,20.78678 46.42857,46.42857 z"
       transform="translate(-0.0863652,-0.67670726)" />
  </g>
  <g
     inkscape:groupmode="layer"
     id="layer5"
     inkscape:label="Atomic Path"
     style="display:inline"
     sodipodi:insensitive="true"
     transform="translate(-112.27414,-241.77919)">
    <path
       style="fill:#000000;display:inline"
       d="m 391.3125,276.59375 c -4.63079,-0.0383 -9.51029,1.04839 -14.75,3.21875 -17.85366,7.39523 -31.16105,31.41527 -43.3125,71.3125 -5.23741,17.19615 -7.54894,40.34375 -8.84375,40.34375 -1.29482,0 -24.25305,-2.3078 -39.90625,-6.375 -17.17897,-4.46365 -33.90456,-7.66751 -51.4375,-6.5625 -37.59832,2.36961 -56.98498,1.97993 -56.34375,31.90625 0.49167,22.94645 12.714,44.58109 43.375,76.8125 10.3048,10.83259 30.34375,25.21678 30.34375,27.03125 0,1.81447 -11.85695,11.81903 -17.78125,17.59375 l -30.5625,29.8125 -7.65625,17.5 c -7.82917,17.87842 -20.39604,48.78881 -7.8125,61.375 13.80892,13.81182 57.618,16.79398 96.875,6.59375 15.6532,-4.0672 36.91731,-7.42511 38.0625,-6.6875 13.86218,8.92857 8.32411,33.01091 15.1875,46.625 16.85038,33.42412 12.82084,38.11475 30.875,57.4375 15.35401,16.43288 25.99468,13.74371 36.90625,1.5625 14.74762,-16.4636 24.90652,-13.55679 43.09375,-73 1.1459,-3.74528 3.55679,-41.36413 10.28125,-39.65625 l 63.96875,16.25 c 3.86768,0.98231 25.76417,3.08836 41.78125,-0.15625 35.50288,-7.19189 32.875,-8.59631 32.875,-38.78125 0,-21.96286 -11.04925,-36.75753 -41.75,-70.4375 l -23.8125,-26.125 20.1875,-23.03125 c 5.64519,-7.36807 19.00367,-19.9688 29.375,-35.5 21.84831,-32.71805 17.81298,-36.33517 13.59375,-57.375 -2.48117,-12.3727 -6.1734,-18.4375 -38.75,-18.4375 -19.97236,0 -46.41136,0.64363 -58.09375,4.75 L 472.625,393.25 l -13,0.3125 -20.9375,-63.90625 c -2.818,-4.04249 -3.43291,-11.3271 -10.21875,-22.90625 -11.70828,-19.97867 -23.26389,-30.04122 -37.15625,-30.15625 z m 3.78125,22.125 c 33.55983,-0.10139 48.46875,104.34375 48.46875,104.34375 -15,-1.42857 -52.84375,20.71875 -52.84375,20.71875 C 381.43303,416.6384 334.28125,399.5 334.28125,399.5 344.28125,361.16667 345,317.11905 390,299.5 c 1.74107,-0.53571 3.44327,-0.77626 5.09375,-0.78125 z m -119.1875,104.8125 c 13.06643,-0.24338 26.46205,3.02455 41.25,13.125 0,0 -0.004,25.70982 -5.71875,54.28125 0,0 -37.1384,22.48214 -36.78125,29.625 0,0 -65.02232,-27.5 -43.59375,-87.5 15.62128,-4.49033 30.03513,-9.25542 44.84375,-9.53125 z m 247.5625,3.4375 c 16.16647,-0.31183 28.67857,3.30804 32.25,16.8125 C 567.14732,460.20982 510,504.5 510,504.5 c 7.14286,-7.85714 -42.15625,-30 -42.15625,-30 -10,-9.28572 -5.6875,-60 -5.6875,-60 19.98512,-1.77083 42.9905,-7.17785 61.3125,-7.53125 z m -191.5625,7.09375 c 13.7662,7.50186 26.20398,12.40043 42.9375,17.1875 -13.06142,1.14757 -48.40625,29.6875 -48.40625,29.6875 -4.28571,-0.71429 5.46875,-46.875 5.46875,-46.875 z m 112.5625,10 c 12.07974,3.83016 6.9783,22.16889 7.0625,32.3125 -15.15229,3.03046 -34.34375,-17.1875 -34.34375,-17.1875 5.05076,-11.11168 27.28125,-15.125 27.28125,-15.125 z M 397.25,443 c 16.24662,9.84899 32.48894,13.13229 53.28125,31.0625 l -0.5,84.84375 c -3.03046,-1.01015 -57.09375,31.3125 -57.09375,31.3125 -24.24366,-9.09137 -67.65625,-42.9375 -67.65625,-42.9375 l 0,-61.125 C 319.22033,473.02427 397.25,443 397.25,443 z m 70.96875,39.625 c 0,0 43.41481,22.23556 36.34375,26.78125 0,0 -7.57471,23.24302 -34.34375,36.375 l -2,-63.15625 z m -162.5,9.75 7.84375,0 c -3.92857,26.42857 -0.71875,42.84375 -0.71875,42.84375 C 300.87946,536.11161 280,513.0625 280,513.0625 c 4.28571,-12.14286 25.71875,-20.6875 25.71875,-20.6875 z m 212.125,31.40625 c 48.57143,34.04762 54.3125,61.68006 64.3125,87.15625 -3.57143,24.28572 -44.3125,24.28125 -44.3125,24.28125 -5.71428,-5 -75,-14.28125 -75,-14.28125 2.14286,-10 4.3125,-60.71875 4.3125,-60.71875 10,0 50.6875,-36.4375 50.6875,-36.4375 z m -252.125,4.28125 c 8.57143,6.42857 30.69643,25.72768 47.125,32.15625 4.28572,6.42858 8.59375,61.4375 8.59375,61.4375 C 290.00893,638.08482 225.71875,639.5 225.71875,639.5 190.00446,638.78571 208.5625,590.9375 208.5625,590.9375 c -1.42857,-32.14286 57.15625,-62.875 57.15625,-62.875 z M 329.8125,568 c 0,0 28.78013,21.20939 44.4375,25.25 0,0 16.67832,11.60786 -38.375,25.75 -5.55584,-17.00423 -12.62849,-35.00592 -6.0625,-51 z m 114.65625,6.0625 c 6.22927,13.97378 -0.159,28.94183 -4.03125,38.875 -15.65736,-6.06092 -31.84375,-14.625 -31.84375,-14.625 5.55584,-10.6066 35.875,-24.25 35.875,-24.25 z m -53.75,31.15625 c 14.04762,9.04762 30.94346,18.0997 48.5625,20.71875 -10,77.14286 -50.71875,78.5625 -50.71875,78.5625 -27.14286,17.85714 -47.84375,-73.5625 -47.84375,-73.5625 5,-2.85714 50,-25.71875 50,-25.71875 z"
       id="path3022"
       inkscape:connector-curvature="0" />
  </g>
  <g
     inkscape:groupmode="layer"
     id="layer4"
     inkscape:label="Outer Balls"
     style="display:inline"
     sodipodi:insensitive="true"
     transform="translate(-112.27414,-241.77919)">
    <path
       sodipodi:type="arc"
       style="fill:#800000;fill-opacity:1;fill-rule:evenodd;stroke:none"
       id="path3823"
       sodipodi:cx="223.24371"
       sodipodi:cy="555.36713"
       sodipodi:rx="38.385796"
       sodipodi:ry="38.385796"
       d="m 261.62951,555.36713 c 0,21.19989 -17.18591,38.38579 -38.3858,38.38579 -21.19989,0 -38.38579,-17.1859 -38.38579,-38.38579 0,-21.19989 17.1859,-38.3858 38.38579,-38.3858 21.19989,0 38.3858,17.18591 38.3858,38.3858 z"
       transform="matrix(0.79531119,0,0,0.79531119,47.481204,115.10601)" />
    <path
       sodipodi:type="arc"
       style="fill:#800000;fill-opacity:1;fill-rule:evenodd;stroke:none"
       id="path3825"
       sodipodi:cx="442.44681"
       sodipodi:cy="359.39752"
       sodipodi:rx="32.324883"
       sodipodi:ry="32.324883"
       d="m 474.77169,359.39752 c 0,17.85254 -14.47234,32.32488 -32.32488,32.32488 -17.85254,0 -32.32488,-14.47234 -32.32488,-32.32488 0,-17.85254 14.47234,-32.32488 32.32488,-32.32488 17.85254,0 32.32488,14.47234 32.32488,32.32488 z"
       transform="matrix(0.90402914,0,0,0.90402914,40.462004,34.491691)" />
    <path
       sodipodi:type="arc"
       style="fill:#800000;fill-opacity:1;fill-rule:evenodd;stroke:none"
       id="path3827"
       sodipodi:cx="496.99506"
       sodipodi:cy="637.18951"
       sodipodi:rx="35.355339"
       sodipodi:ry="35.355339"
       d="m 532.3504,637.18951 c 0,19.52622 -15.82913,35.35534 -35.35534,35.35534 -19.52622,0 -35.35534,-15.82912 -35.35534,-35.35534 0,-19.52621 15.82912,-35.35533 35.35534,-35.35533 19.52621,0 35.35534,15.82912 35.35534,35.35533 z"
       transform="matrix(0.84285714,0,0,0.84285714,82.099223,100.12978)" />
  </g>
</svg>
